<?xml version="1.0" standalone="no"?>
<!DOCTYPE svg PUBLIC "-//W3C//DTD SVG 20010904//EN"
 "http://www.w3.org/TR/2001/REC-SVG-20010904/DTD/svg10.dtd">
<svg version="1.0" xmlns="http://www.w3.org/2000/svg"
 width="300.000000pt" height="300.000000pt" viewBox="0 0 300.000000 300.000000"
 preserveAspectRatio="xMidYMid meet">
<metadata>
Created by potrace 1.10, written by Peter Selinger 2001-2011
</metadata>
<g transform="translate(0.000000,300.000000) scale(0.100000,-0.100000)"
fill="#ffffffff" stroke="none">
<path d="M1375 2180 c-55 -32 -122 -72 -148 -87 -83 -48 -110 -67 -121 -88 -5
-11 -18 -32 -28 -47 -16 -24 -18 -52 -17 -247 l1 -219 26 -25 c40 -38 341
-209 366 -208 27 1 66 1 91 0 24 -2 328 172 368 209 24 23 27 33 27 87 0 64
-17 95 -52 95 -10 0 -19 12 -23 29 -5 24 1 38 29 76 51 66 46 126 -8 125 -36
-1 -129 -64 -161 -110 -17 -24 -35 -45 -40 -47 -6 -2 -16 16 -23 39 -12 39
-12 44 5 56 57 40 94 63 149 91 34 17 70 43 79 57 16 25 16 28 -1 51 -28 36
-352 222 -389 223 -19 0 -66 -21 -130 -60z m316 -77 c104 -60 188 -110 189
-113 0 -3 -23 -17 -52 -32 l-52 -28 -75 44 c-42 24 -110 64 -153 89 -63 38
-79 44 -93 33 -14 -10 6 -24 134 -96 83 -47 150 -87 150 -90 0 -3 -53 -35
-118 -73 l-119 -67 -84 49 c-45 27 -131 76 -191 109 l-108 60 56 31 c30 17 57
31 59 31 2 0 63 -36 134 -80 81 -50 136 -78 146 -74 9 3 16 9 16 13 0 3 -59
40 -130 81 -72 41 -130 77 -130 80 0 4 216 136 229 139 2 1 89 -47 192 -106z
m-406 -269 l183 -106 4 -59 c1 -32 0 -59 -4 -59 -4 0 -65 34 -135 75 -102 59
-129 71 -132 58 -4 -21 5 -27 151 -110 l117 -66 3 -144 c2 -78 1 -142 -2 -141
-3 2 -90 52 -193 112 l-187 109 0 58 c0 33 2 59 6 59 3 0 66 -36 140 -80 121
-71 134 -77 134 -57 0 18 -27 37 -138 99 l-137 77 0 141 c0 77 1 140 3 140 1
0 85 -48 187 -106z m606 -22 c-11 -22 -30 -44 -42 -47 -21 -7 -21 -11 -15 -88
4 -45 9 -83 11 -85 2 -2 14 3 27 12 12 9 26 16 30 16 5 0 8 -27 8 -59 l0 -59
-102 -58 c-57 -32 -143 -82 -192 -111 -49 -29 -89 -52 -90 -51 -1 2 1 103 4
226 l5 223 44 24 c23 14 45 25 47 25 2 0 4 -72 4 -159 l0 -160 98 58 97 58 -3
39 c-2 21 -8 43 -12 48 -5 5 -37 8 -70 7 -45 -1 -60 2 -54 10 4 8 28 10 70 6
l64 -5 0 34 c0 40 -3 41 -42 13 -36 -26 -44 -20 -24 19 24 46 82 83 70 45 -3
-10 1 -8 8 5 14 23 69 65 76 58 2 -2 -6 -22 -17 -44z m-106 -193 c0 -16 -94
-81 -107 -73 -8 5 -12 77 -4 85 2 2 28 3 58 3 37 -1 53 -6 53 -15z"/>
<path d="M535 1221 c-43 -18 -54 -42 -50 -116 1 -38 3 -73 4 -77 0 -4 14 -14
31 -23 23 -12 43 -13 97 -6 37 4 166 7 286 6 210 -3 219 -2 238 18 10 11 19
35 19 51 0 38 14 61 30 51 7 -5 9 -20 5 -47 -5 -30 -3 -44 10 -58 25 -28 68
-34 105 -15 17 9 36 12 43 8 14 -9 173 -16 317 -14 52 1 114 2 136 2 57 0 80
28 83 102 2 33 21 17 21 -19 0 -76 41 -101 138 -85 43 7 72 7 93 -1 22 -8 41
-8 68 0 20 6 46 9 59 6 12 -4 28 -1 36 5 11 9 19 9 34 0 16 -10 26 -10 46 -1
16 7 28 8 31 2 10 -16 41 -11 60 10 9 10 20 40 22 64 3 25 12 51 19 57 20 17
17 43 -7 65 -17 15 -35 19 -91 17 -38 -1 -76 -7 -83 -13 -8 -7 -20 -8 -27 -3
-32 20 -248 17 -269 -4 -17 -17 -29 -16 -51 4 -18 16 -22 16 -48 1 -26 -15
-29 -15 -44 1 -14 14 -39 16 -174 13 -176 -3 -158 -2 -344 0 -122 2 -139 0
-158 -17 -17 -16 -24 -17 -38 -7 -36 25 -67 33 -107 26 -22 -4 -44 -7 -49 -6
-33 9 -79 3 -96 -13 -18 -16 -23 -17 -45 -5 -19 10 -30 11 -50 2 -18 -8 -31
-9 -49 -1 -20 9 -29 7 -55 -12 -29 -22 -31 -22 -50 -5 -11 10 -34 22 -53 26
-18 5 -42 11 -53 14 -11 3 -29 1 -40 -3z m64 -44 c15 -18 3 -28 -24 -21 -38 9
-37 -13 1 -35 29 -17 35 -26 32 -48 -5 -48 -93 -59 -93 -12 0 13 6 13 48 2 29
-9 19 21 -13 39 -39 22 -47 44 -25 68 21 23 57 26 74 7z m69 -38 l34 -51 36
53 37 54 3 -69 c3 -79 -1 -96 -24 -96 -13 0 -15 7 -10 38 6 35 6 36 -9 17 -9
-11 -21 -27 -26 -35 -7 -10 -12 -11 -15 -4 -3 6 -11 20 -19 30 -13 18 -14 17
-15 -13 0 -22 -5 -33 -14 -33 -11 0 -15 19 -18 80 -2 44 -1 80 2 80 3 0 20
-23 38 -51z m227 -25 c19 -42 35 -78 35 -80 0 -11 -32 -2 -36 11 -4 9 -19 15
-35 15 -17 0 -32 -6 -35 -15 -6 -15 -34 -21 -34 -7 0 8 64 152 67 152 1 0 18
-34 38 -76z m123 60 c24 -16 29 -53 11 -71 -9 -9 -6 -19 10 -42 22 -30 22 -31
2 -31 -12 0 -28 15 -43 38 l-23 37 -3 -37 c-2 -25 -8 -38 -18 -38 -11 0 -14
17 -14 80 l0 80 28 0 c15 0 38 -7 50 -16z m142 -5 c0 -16 -5 -20 -20 -16 -18
5 -20 0 -20 -59 0 -50 -3 -64 -15 -64 -12 0 -15 14 -15 64 0 54 -3 64 -17 62
-10 0 -19 7 -21 17 -3 15 4 17 52 17 50 0 56 -2 56 -21z m149 7 c15 -18 -1
-30 -28 -21 -35 11 -32 -13 4 -34 43 -25 48 -65 11 -82 -33 -16 -78 -4 -74 19
2 9 11 15 19 13 52 -13 61 6 16 34 -17 11 -33 28 -35 36 -7 39 62 66 87 35z
m121 -6 c0 -14 -6 -20 -17 -18 -14 3 -16 -6 -14 -59 2 -58 1 -63 -18 -63 -19
0 -21 6 -21 65 0 53 -3 63 -15 59 -10 -4 -15 0 -15 15 0 19 6 21 50 21 44 0
50 -3 50 -20z m100 0 c24 -24 24 -29 4 -58 -14 -21 -14 -24 6 -50 21 -25 21
-27 4 -31 -10 -2 -23 4 -29 14 -5 10 -18 27 -28 39 -17 21 -17 20 -11 -16 6
-34 4 -38 -16 -38 -21 0 -22 4 -19 73 1 39 4 75 6 80 8 15 64 6 83 -13z m130
-1 c0 -19 -4 -21 -30 -15 -22 4 -30 2 -30 -9 0 -9 10 -15 25 -15 18 0 25 -5
25 -20 0 -17 -5 -19 -25 -14 -21 5 -25 3 -25 -16 0 -19 4 -21 30 -15 26 6 30
4 30 -14 0 -18 -6 -21 -45 -21 l-45 0 0 80 0 80 45 0 c39 0 45 -3 45 -21z
m110 0 c0 -19 -4 -21 -30 -15 -22 4 -30 2 -30 -9 0 -9 10 -15 25 -15 18 0 25
-5 25 -20 0 -17 -5 -19 -25 -14 -21 5 -25 3 -25 -15 0 -17 4 -20 30 -14 26 5
30 3 30 -16 0 -18 -6 -21 -45 -21 l-45 0 0 80 0 80 45 0 c39 0 45 -3 45 -21z
m115 1 c0 -8 -8 -14 -17 -14 -15 2 -18 -7 -18 -62 0 -58 -2 -64 -21 -64 -19 0
-21 5 -17 63 2 54 1 62 -15 59 -12 -2 -17 4 -17 18 0 19 5 21 53 18 38 -2 52
-7 52 -18z m95 -43 l0 -64 30 5 c25 4 30 1 30 -17 0 -18 -6 -21 -45 -21 l-45
0 0 80 c0 64 3 80 15 80 12 0 15 -14 15 -63z m100 -17 c0 -64 -3 -80 -15 -80
-12 0 -15 16 -15 80 0 64 3 80 15 80 12 0 15 -16 15 -80z m136 66 c15 -12 16
-17 7 -27 -10 -10 -15 -10 -27 0 -33 28 -75 -14 -61 -59 9 -27 52 -37 73 -16
15 15 14 16 -11 16 -17 0 -27 5 -27 15 0 11 11 15 40 15 34 0 40 -3 40 -20 0
-29 -44 -70 -75 -70 -14 0 -37 11 -50 25 -65 64 18 174 91 121z m82 -17 c-3
-27 0 -32 25 -34 25 -3 27 -1 27 31 0 24 5 34 15 34 12 0 15 -16 15 -80 0 -64
-3 -80 -15 -80 -10 0 -15 10 -15 34 0 32 -2 34 -27 31 -25 -2 -28 -7 -25 -34
2 -25 -2 -31 -17 -31 -18 0 -20 8 -20 80 0 73 2 80 19 80 16 0 20 -6 18 -31z
m202 10 c0 -16 -5 -20 -20 -16 -18 5 -20 0 -20 -59 0 -50 -3 -64 -15 -64 -12
0 -15 13 -15 60 0 53 -2 60 -20 60 -13 0 -20 7 -20 20 0 18 7 20 55 20 49 0
55 -2 55 -21z"/>
<path d="M970 1141 c0 -15 6 -21 21 -21 14 0 19 5 17 17 -5 26 -38 29 -38 4z"/>
<path d="M1477 1154 c-14 -15 -6 -34 14 -34 14 0 19 5 17 17 -3 18 -20 27 -31
17z"/>
<path d="M1425 969 c-17 -5 -50 -25 -72 -44 l-42 -36 -17 26 c-25 39 -65 55
-137 55 -95 0 -97 -4 -97 -182 0 -180 2 -183 119 -183 69 0 81 3 114 28 19 15
39 27 42 27 3 0 22 -12 41 -27 46 -35 126 -43 189 -19 40 16 46 16 74 2 39
-21 49 -20 95 5 37 19 39 19 58 2 41 -37 138 -11 138 36 0 9 -14 39 -30 66
-36 61 -37 78 -5 130 30 48 31 76 7 98 -23 21 -81 22 -110 1 -21 -14 -25 -14
-47 0 -31 20 -84 21 -112 1 -19 -13 -26 -13 -65 5 -46 21 -93 24 -143 9z m132
-49 c143 -64 91 -280 -67 -280 -87 0 -148 52 -157 133 -7 61 25 119 81 147 51
25 89 25 143 0z m-303 -16 c29 -30 33 -51 12 -79 -12 -17 -11 -20 7 -30 45
-22 47 -102 4 -129 -12 -8 -58 -16 -104 -18 l-83 -5 0 144 0 143 69 0 c60 0
71 -3 95 -26z m492 -9 c10 -19 21 -35 24 -35 4 0 14 16 23 35 15 32 20 35 63
35 l45 0 -19 -27 c-11 -16 -31 -46 -45 -69 l-25 -40 44 -70 c24 -38 44 -72 44
-76 0 -3 -19 -5 -42 -4 -39 2 -45 6 -67 46 l-24 43 -22 -43 c-21 -41 -25 -44
-69 -46 l-47 -3 22 37 c13 20 33 53 46 72 28 42 28 45 5 78 -10 15 -29 44 -41
65 l-23 37 45 0 c40 0 46 -3 63 -35z"/>
<path d="M1453 860 c-49 -20 -59 -96 -17 -129 44 -34 103 -21 124 28 26 63
-43 128 -107 101z m57 -55 c17 -21 5 -45 -24 -45 -27 0 -42 26 -25 46 15 18
33 18 49 -1z"/>
<path d="M1170 846 c0 -20 5 -26 21 -26 15 0 20 5 17 22 -5 34 -38 37 -38 4z"/>
<path d="M1170 740 c0 -32 16 -38 51 -20 36 20 17 50 -32 50 -14 0 -19 -7 -19
-30z"/>
</g>
</svg>
